<svg width="247" height="49" viewBox="0 0 247 49" fill="none" xmlns="http://www.w3.org/2000/svg">
<g clip-path="url(#clip0_10_21)">
<path d="M78.7781 5.24777C79.5891 6.30797 79.3419 15.4333 79.3419 16.8108C79.3419 18.7203 78.8824 26.8533 80.6124 28.163C81.3887 28.7279 82.9778 28.6582 83.9297 28.6582C84.3892 28.6582 87.8127 28.5867 88.3418 28.7995C88.5175 28.9059 88.5175 29.0122 88.5175 29.1883C88.5175 29.2947 88.5175 29.436 88.4114 29.5057C87.9518 29.8248 82.8697 29.7184 82.3407 29.7184C81.1049 29.7184 78.952 29.8248 77.8938 29.1883C75.988 28.0914 76.2004 23.4233 76.1638 21.5854V17.3409C76.1638 15.9616 75.9166 6.23643 76.7643 5.21109C77.0114 4.92861 77.3995 4.96346 77.7529 4.96346C78.1062 4.96346 78.5291 4.92861 78.7762 5.24594L78.7781 5.24777Z" fill="#785990"/>
<path d="M131.521 5.74852C135.756 5.74852 141.091 7.88725 141.091 12.8636C141.091 17.506 135.955 19.0761 135.955 20.7141C135.955 22.2182 141.091 27.5962 141.091 28.7646C141.091 29.2323 140.056 29.1315 139.857 29.1315C139.39 29.1315 138.923 29.1645 138.489 28.9976C137.356 28.5628 135.254 25.4905 134.555 24.522C133.888 23.6544 131.754 20.5802 130.82 20.0795C130.487 19.9126 130.121 19.9126 129.753 19.9126C129.42 19.9126 128.953 19.8795 128.753 20.1473C128.253 20.6811 128.387 23.8543 128.387 24.5238C128.387 25.2245 128.554 28.4656 127.953 28.9664C127.686 29.1663 127.219 29.1333 126.886 29.1333C126.553 29.1333 126.152 29.1333 125.919 28.8325C125.152 27.7961 125.387 18.812 125.387 17.4418C125.387 15.8057 124.986 7.18657 126.386 6.08419C126.919 5.68249 127.82 5.75035 128.453 5.75035H131.519L131.521 5.74852ZM129.152 18.7423C129.553 18.9422 130.22 18.9092 130.654 18.9092H132.92C136.021 18.9092 138.222 17.539 138.222 14.2319C138.222 10.0572 134.32 6.75002 130.287 6.75002H129.354C129.086 6.75002 128.821 6.75002 128.687 6.9848C128.286 7.61945 128.387 12.062 128.387 12.8305C128.387 13.799 128.087 18.1755 129.154 18.7423H129.152Z" fill="#785990"/>
<path d="M155.193 13.6321C156.026 14.2667 157.593 15.5691 157.593 16.7045C157.593 18.7423 152.692 18.7423 151.458 18.7423C149.992 18.7423 145.391 18.4085 145.391 20.7471C145.391 21.9504 146.358 23.7535 146.958 24.755C148.058 26.6589 149.726 28.0951 151.993 28.0951C153.393 28.0951 154.794 27.5265 155.826 26.558C156.56 25.8573 157.792 24.6541 157.792 23.5187C157.792 23.0509 157.726 23.5187 157.726 23.0509C157.726 23.0179 157.792 23.0179 157.827 23.0179C158.261 23.0179 158.493 23.7535 158.493 24.0543C158.493 25.4245 156.793 26.9267 155.859 27.6953C154.426 28.8637 152.558 29.4653 150.724 29.4653C145.889 29.4653 143.055 25.3236 143.055 20.7802C143.055 16.2367 145.788 12.095 150.557 12.095C152.225 12.095 153.891 12.6288 155.191 13.6321H155.193ZM146.524 14.7345C146.158 15.1692 145.49 15.9708 145.49 16.6054C145.49 17.9077 149.49 17.7408 150.257 17.7408C151.024 17.7408 154.825 17.7408 154.825 16.4715C154.825 14.9014 150.991 13.4322 149.457 13.4322C148.324 13.4322 147.289 13.8669 146.522 14.7345H146.524Z" fill="#785990"/>
<path d="M171.763 25.5235C171.763 21.2809 161.794 21.3488 161.794 16.1707C161.794 13.0635 164.928 12.095 167.495 12.095C168.929 12.095 170.43 12.3628 171.629 13.1644C172.429 13.733 173.829 14.8005 173.829 15.9377C173.829 16.3725 173.496 17.0401 172.996 17.0401C172.797 17.0401 172.896 16.5394 172.896 16.4055C172.896 14.1347 169.295 13.0983 167.427 13.0983C166.095 13.0983 164.46 13.4652 164.46 15.1032C164.46 18.9441 174.395 19.8465 174.395 24.489C174.395 27.6292 170.728 29.4323 167.993 29.4323C166.325 29.4323 164.559 28.9645 163.158 28.0621C162.224 27.4605 160.425 26.2242 160.425 24.9219C160.425 24.555 160.725 23.9204 161.159 23.9204C161.326 23.9204 161.492 24.9219 161.626 25.1567C162.759 27.2275 165.459 28.4308 167.728 28.4308C169.595 28.4308 171.763 27.7301 171.763 25.5253V25.5235Z" fill="#785990"/>
<path d="M180.565 10.7597C180.565 12.5627 180.764 12.4307 182.533 12.4307C183.065 12.4307 184.499 12.1629 184.499 12.9314C184.499 13.7 183.065 13.4322 182.533 13.4322C182.132 13.4322 181.432 13.3992 181.099 13.6321C180.365 14.1659 180.567 17.3391 180.567 18.1077V24.1533C180.567 25.6574 180.266 28.4289 182.434 28.4289C184.001 28.4289 185.801 27.1266 185.801 25.4556C185.801 25.3548 185.834 25.2887 185.967 25.2887C186.368 25.2887 186.701 25.6904 186.701 26.0573C186.701 26.8588 185.768 27.6934 185.2 28.1611C184.367 28.8618 183.234 29.1296 182.134 29.1296C179.199 29.1296 177.899 27.2917 177.899 24.4523V18.9404C177.899 18.3058 178 14.0301 177.667 13.5624C177.566 13.4285 177.399 13.4285 177.233 13.4285C176.7 13.4285 176.566 13.4945 176.566 12.9278C176.566 12.361 176.7 12.427 177.233 12.427C178.099 12.427 177.899 12.0253 177.899 11.2586C177.899 9.95628 178.033 10.0223 179.232 9.58759C179.499 9.48671 179.931 9.28678 180.199 9.28678C180.698 9.28678 180.565 10.4552 180.565 10.756V10.7597Z" fill="#785990"/>
<path d="M190.967 5.74852C191.966 5.74852 192.635 6.41618 192.635 7.41952C192.635 8.42285 192.001 9.12353 190.967 9.12353C189.933 9.12353 189.299 8.42285 189.299 7.41952C189.299 6.41618 189.965 5.74852 190.967 5.74852ZM191.868 12.6966C192.501 13.4982 192.301 19.7456 192.301 20.7801C192.301 21.8147 192.501 28.0621 191.868 28.8637C191.668 29.1645 191.267 29.1315 190.967 29.1315C190.667 29.1315 190.268 29.1645 190.066 28.8637C189.466 28.0621 189.632 21.8147 189.632 20.7801C189.632 19.7456 189.466 13.4982 190.066 12.6966C190.266 12.3958 190.667 12.4288 190.967 12.4288C191.267 12.4288 191.666 12.3958 191.868 12.6966Z" fill="#785990"/>
<path d="M199.302 14.3328C199.302 14.4337 199.302 14.5327 199.335 14.6006H199.401C199.767 14.6006 202.268 12.095 204.968 12.095C209.036 12.095 209.97 16.1028 209.97 19.4448V24.2891C209.97 24.9237 210.136 28.5977 209.569 28.9994C209.369 29.1663 209.036 29.1333 208.802 29.1333C208.568 29.1333 208.269 29.1663 208.035 28.9994C207.467 28.5977 207.634 24.9237 207.634 24.2891V19.4448C207.634 17.473 208.035 12.7645 205.067 12.7645C203.734 12.7645 202.634 13.5331 201.733 14.4355C198.599 17.6418 199.3 19.1458 199.3 23.3884C199.3 24.157 199.5 28.4656 198.834 28.9664C198.601 29.1663 198.233 29.1333 197.968 29.1333C197.667 29.1333 197.301 29.1663 197.102 28.9003C196.435 28.1648 196.635 21.7853 196.635 20.7838C196.635 19.7823 196.435 13.368 197.102 12.6324C197.301 12.3977 197.669 12.4325 197.968 12.4325C199.668 12.4325 199.3 12.8342 199.3 14.3365L199.302 14.3328Z" fill="#785990"/>
<path d="M226.373 14.9344C226.507 14.9344 226.439 14.0998 226.439 13.9659C226.439 12.5627 226.338 12.4288 227.772 12.4288C228.072 12.4288 228.438 12.3958 228.638 12.6618C229.304 13.4303 229.105 19.9107 229.105 20.9122V29.4304C229.105 33.7721 225.571 36.1108 221.536 36.1108C219.903 36.1108 218.203 35.7091 216.835 34.7406C216.101 34.2068 214.7 33.1044 214.7 32.1011C214.7 31.7343 214.968 31.2665 215.367 31.2665C215.599 31.2665 215.733 32.0681 215.867 32.268C217 34.0711 220 35.1074 222.001 35.1074C226.602 35.1074 226.435 30.8978 226.435 27.4586C226.435 27.4256 226.468 27.2587 226.369 27.2587C226.137 27.2587 223.535 29.4635 220.669 29.4635C215.934 29.4635 213.633 25.0209 213.633 20.7783C213.633 16.9374 215.7 12.0932 220.167 12.0932C223.501 12.0932 225.968 14.9326 226.368 14.9326L226.373 14.9344ZM226.474 22.585C226.474 18.7772 224.339 13.1992 219.806 13.1992C216.872 13.1992 215.672 15.437 215.672 18.1095C215.672 21.9174 217.807 27.7301 222.34 27.7301C225.275 27.7301 226.474 25.1915 226.474 22.585Z" fill="#785990"/>
<path d="M244.378 18.2416C244.378 17.44 243.811 16.3046 243.445 15.5691C242.711 14.1328 241.511 13.4652 239.877 13.4652C238.042 13.4652 235.842 14.6684 234.809 16.2037C234.708 16.3376 234.509 16.9392 234.342 16.9392C234.042 16.9392 233.908 16.5724 233.908 16.3706C233.908 15.2682 235.842 13.8981 236.642 13.3973C237.974 12.5279 239.576 12.095 241.143 12.095C245.878 12.095 246.978 15.736 246.978 19.7787V24.456C246.978 25.1236 247.145 28.5317 246.544 28.9994C246.312 29.1663 245.911 29.1333 245.643 29.1333C244.344 29.1333 244.311 29.1663 244.311 27.831C244.311 27.765 244.376 27.1303 244.245 27.1303C244.012 27.1303 240.644 29.469 237.544 29.469C235.21 29.469 232.111 28.4326 232.111 25.6281C232.111 19.9162 244.38 21.4185 244.38 18.2452L244.378 18.2416ZM237.376 28.7976C238.776 28.7976 240.109 28.229 241.242 27.4275C242.575 26.525 244.344 25.5235 244.344 23.7204C244.344 22.3833 244.543 20.881 242.743 20.881C241.411 20.881 239.342 21.6166 238.11 22.1173C236.343 22.818 234.776 23.9882 234.776 26.0591C234.776 27.8292 235.543 28.7976 237.376 28.7976Z" fill="#785990"/>
<path d="M98.9435 12.5994C98.9435 11.7502 98.343 10.5487 97.9549 9.77102C97.1787 8.25043 95.9081 7.54241 94.1781 7.54241C92.2375 7.54241 89.907 8.81538 88.8141 10.4424C88.7079 10.5836 88.4955 11.2201 88.3198 11.2201C88.0012 11.2201 87.8603 10.8312 87.8603 10.6184C87.8603 9.45186 89.907 8.00097 90.7546 7.47088C92.1661 6.55192 93.8614 6.09152 95.52 6.09152C100.533 6.09152 101.697 9.94527 101.697 14.2246V19.1752C101.697 19.8832 101.873 23.4893 101.237 23.9846C100.99 24.1607 100.567 24.1258 100.284 24.1258C98.9069 24.1258 98.8721 24.1607 98.8721 22.7465C98.8721 22.6749 98.9435 22.0036 98.8007 22.0036C98.5535 22.0036 94.9891 24.4798 91.7066 24.4798C89.2351 24.4798 85.9526 23.3829 85.9526 20.4133C85.9526 14.3658 98.9417 15.9579 98.9417 12.5976L98.9435 12.5994ZM91.5309 23.7736C93.0138 23.7736 94.4253 23.172 95.6244 22.3227C97.0359 21.3671 98.9069 20.3069 98.9069 18.3975C98.9069 16.9833 99.1192 15.3911 97.2134 15.3911C95.802 15.3911 93.6142 16.1689 92.3071 16.699C90.4361 17.4418 88.7774 18.6799 88.7774 20.8719C88.7774 22.7465 89.5885 23.7718 91.5309 23.7718V23.7736Z" fill="#785990"/>
<path fill-rule="evenodd" clip-rule="evenodd" d="M60.3737 33.3208C56.7068 32.2239 53.038 31.1289 49.3711 30.0283C49.2136 29.9806 49.069 29.8908 48.8896 29.8064C48.972 29.2488 49.0672 28.7095 49.1276 28.1684C49.2338 27.2274 48.9134 26.5047 48.2873 26.0058C47.9431 25.7325 47.5513 25.4959 47.1394 25.3749C46.4328 25.1658 45.7005 25.019 44.9663 24.9163C43.3388 24.6907 41.7113 24.8539 40.0728 25.4336C38.156 26.1122 36.4773 27.3008 34.9047 28.7535C34.6026 29.0323 34.2969 29.3075 33.971 29.6046C33.5756 29.28 33.2076 28.9902 32.9787 28.4344C33.7934 27.31 34.35 25.9765 35.4081 24.9181C35.8109 25.0135 36.166 25.1217 36.5303 25.1823C38.5863 25.5198 40.5506 25.1016 42.3539 23.5755C43.4908 22.6143 44.4318 21.4312 45.0908 20.0134C45.3892 19.3695 45.7792 18.9477 46.3174 18.5661C47.7472 17.5555 48.3697 15.7451 47.9321 14.0337C47.8223 13.6027 47.6465 13.1881 47.4488 12.8048C46.7861 11.5226 45.7975 10.6147 44.7283 9.80212C44.4904 9.62237 44.2707 9.41326 44.0784 9.24818C44.1865 8.60803 44.3018 8.06509 44.364 7.51849C44.6478 5.00924 44.0748 2.92004 42.3832 1.4288C41.9475 1.04544 41.4349 0.766637 40.9461 0.460318C39.9209 -0.181668 38.8261 -0.124806 37.6984 0.452981C36.7537 0.937221 36.0873 1.78464 35.5326 2.75312C35.3184 3.12731 35.1152 3.51433 34.9541 3.91603C34.7802 4.34708 34.6612 4.80014 34.4946 5.31556C34.0625 5.24219 33.6653 5.189 33.2735 5.10829C31.7119 4.79097 30.1191 4.72127 28.5044 4.86984C27.3254 4.97806 26.1904 5.35775 25.1139 6.04559C24.3395 6.539 23.7665 7.23785 23.3491 8.12012C22.3422 10.2478 22.4777 12.2472 23.4242 14.1181C23.75 14.7601 24.1784 15.336 24.6196 15.8826C25.4782 16.9483 26.2801 18.0654 27.0691 19.2503C26.681 19.5475 26.3222 19.5475 25.9231 19.5181C25.8645 19.3292 25.8114 19.1531 25.7529 18.9807C25.3318 17.7279 24.6727 16.6732 23.8269 15.7744C22.5143 14.3822 20.9124 13.6669 19.0634 13.5146C16.4857 13.3019 13.9977 13.8375 11.6892 15.5451C10.8288 16.1816 10.0507 16.9777 9.13899 17.7866C6.26109 16.8823 3.34291 16.0055 0.42656 15.1086C0.272778 15.4351 0.131812 15.7653 0 16.1028C0.320377 16.2 0.640755 16.2972 0.961132 16.3926C3.12322 17.0401 5.28897 17.6765 7.44923 18.335C7.81721 18.4469 8.25109 18.4524 8.53119 18.8578C8.26574 19.4502 7.99479 20.0152 7.75496 20.593C6.60527 23.3755 6.15491 26.2094 6.59611 29.1057C6.68216 29.6707 6.78285 30.2338 6.87621 30.7969C7.02633 31.7067 7.31376 32.5431 7.68357 33.3446C8.28771 34.6543 9.14815 35.7163 10.0415 36.7545C11.7606 38.752 13.8513 39.9956 16.3722 40.379C18.029 40.6303 19.684 40.5404 21.3646 39.9608C24.1729 38.9923 26.5401 37.1635 28.552 34.6873C29.645 33.3428 30.6226 31.8736 31.6551 30.4649C31.829 30.2264 32.0213 30.0045 32.2519 29.7165C32.5339 30.0632 32.8817 30.2319 32.9183 30.7584C32.6474 31.1582 32.3654 31.5783 32.0798 31.9946C30.8423 33.805 30.0441 35.7897 29.7567 38.0018C29.5589 39.5297 29.7164 40.9494 30.2235 42.2958C30.4249 42.8277 30.7343 43.2477 31.1352 43.5871C31.9187 44.2511 32.8414 44.3446 33.8264 44.1667C34.425 44.0585 34.9578 43.754 35.4337 43.2918C35.9573 42.7818 36.4004 42.1912 36.7189 41.5052C37.6471 39.504 37.8466 37.4882 37.226 35.4834C36.7812 34.0508 36.1953 32.7137 35.3276 31.5746C35.1005 31.2775 34.8369 30.9895 34.7655 30.5456C34.8864 30.4044 34.9797 30.2833 35.0841 30.1769C36.4827 28.7407 38.0096 27.5723 39.7616 26.8404C41.0944 26.2846 42.429 25.8463 43.8203 25.905C44.8107 25.9471 45.7902 26.037 46.6854 26.4662C47.7124 26.9578 47.9779 28.0198 47.4195 29.3497C47.0387 29.3662 46.7238 29.1479 46.3815 29.0213C45.5613 28.7132 44.7521 28.3702 43.9192 28.106C43.0148 27.8181 42.072 27.7117 41.0962 27.9446C38.6869 28.5188 38.1286 31.4334 38.8792 33.0347C39.3423 34.0196 40.1204 34.7112 41.0907 34.9588C42.5443 35.3293 44.0107 35.1019 45.3783 34.1059C46.3449 33.4033 47.2328 32.5779 47.9266 31.5086C48.0511 31.316 48.1994 31.1399 48.3221 30.9766C48.8365 31.0335 54.6838 32.7742 60.0204 34.4177C60.1724 34.0692 60.2859 33.7023 60.3701 33.3226L60.3737 33.3208ZM35.1957 23.1389C35.1518 23.1976 35.0822 23.2343 34.9687 23.3297C33.4346 22.7225 30.6574 20.8406 29.9068 19.896C31.1901 19.4594 32.4625 19.0706 33.7129 18.5863C34.9651 18.1002 36.1953 17.5188 37.4274 16.9832C37.9638 17.4766 38.4673 17.9388 39.0201 18.4487C38.9249 18.6047 38.8517 18.7789 38.7364 18.9055C37.508 20.2647 36.2924 21.6403 35.1939 23.1407L35.1957 23.1389ZM36.2356 23.7901C36.7207 22.7977 37.4842 22.0695 38.1341 21.2405C38.773 20.4224 39.5016 19.7125 40.1808 18.977C40.8985 19.1513 41.5392 19.3585 42.2001 19.4502C42.8628 19.542 43.5475 19.5199 44.289 19.5493C43.0184 23.1151 38.1322 24.942 36.2356 23.7882V23.7901ZM41.2921 17.8563C41.9328 17.1813 42.6248 16.6659 43.4047 16.3155C43.8423 16.1193 44.2084 16.233 44.4812 16.6108C44.7558 16.9924 44.9096 17.4307 44.8052 17.959C43.6592 18.5515 42.2056 18.5221 41.2902 17.8563H41.2921ZM43.2034 11.1998C43.3461 10.8843 43.4468 10.5266 43.8093 10.3084C44.8217 11.0347 45.7114 11.9372 46.3797 13.1019C46.7055 13.6705 46.8575 14.3364 46.8795 15.0426C46.9087 15.956 46.603 16.6163 45.8048 17.317C45.576 16.6714 45.3252 16.1633 44.8968 15.7891C44.5416 15.4791 44.1535 15.347 43.6885 15.3819C42.8335 15.4479 42.0848 15.8863 41.3708 16.4403C40.9332 16.7796 40.5085 17.1446 40.0875 17.4894C39.4998 17.251 39.1117 16.8199 38.7071 16.299C38.8865 16.1248 39.0348 15.9689 39.1922 15.8294C39.8403 15.259 40.5067 14.7142 41.1383 14.1199C42.0024 13.3074 42.6908 12.3297 43.2034 11.1998ZM42.4674 10.1928C42.1196 11.0843 41.6454 11.8877 41.0394 12.6012C40.1607 13.6375 39.1666 14.4776 38.0865 15.1178C37.7038 15.0279 37.6086 14.6812 37.4695 14.4006C36.4187 12.2875 35.8969 9.94703 35.7157 7.46346C35.7029 7.28004 35.7468 7.08377 35.7743 6.79396C37.7203 7.12963 41.0907 8.49981 42.6285 9.57284C42.5809 9.76177 42.548 9.98738 42.4674 10.191V10.1928ZM38.264 1.37561C38.9927 0.913376 39.7085 0.900536 40.4316 1.25638C43.2912 2.66508 43.6061 5.92086 43.077 8.22834C43.0606 8.29621 43.002 8.3549 42.9159 8.49064C42.1196 8.30171 41.4385 7.75878 40.6477 7.49464C39.8183 7.21767 39.0165 6.85816 38.2 6.54634C37.4183 6.24736 36.631 5.96488 35.8768 5.68425C35.8511 5.55034 35.8164 5.47331 35.8255 5.40177C36.0562 3.63723 36.8526 2.27255 38.2659 1.37561H38.264ZM25.3153 14.7583C24.4677 13.7109 23.9789 12.482 23.891 10.998C23.7903 9.31421 24.5061 7.33323 26.3167 6.48948C27.0051 6.16849 27.7007 5.90986 28.4275 5.80347C30.4047 5.51183 32.3069 5.77045 34.1779 6.23819C34.2712 6.26203 34.3499 6.3409 34.4287 6.3886C34.6593 9.38758 34.1687 10.3707 36.6127 15.8992C35.8072 16.5246 34.8882 16.8016 34.0113 17.185C31.8034 18.1479 29.8702 18.8009 28.6344 18.9385C28.3873 18.6505 28.1035 18.3442 27.8454 18.0122C26.9996 16.93 26.1776 15.8221 25.3171 14.7583H25.3153ZM24.1235 26.0535C23.3638 27.9318 22.2928 29.5276 20.6945 30.6098C20.3302 30.8574 19.9366 31.05 19.5449 31.2261C18.9261 31.5031 18.4098 31.36 17.9869 30.8427C17.3461 30.0613 17.066 29.1277 17.2656 28.0015C17.3187 27.7025 17.4359 27.3962 17.5805 27.1284C17.9064 26.5194 18.3933 26.1012 18.9371 25.7784C20.5939 24.7971 22.3147 24.4981 24.0722 24.6503C24.2004 24.6613 24.3212 24.7274 24.4347 24.7641C24.5006 25.2648 24.2846 25.6592 24.1253 26.0535H24.1235ZM10.9331 17.561C13.1227 15.3947 15.6051 14.3602 18.353 14.3951C21.3518 14.4318 23.2649 16.1926 24.4457 19.0981C24.5134 19.2632 24.5409 19.4521 24.583 19.6135C24.2773 19.9363 23.9551 19.8574 23.664 19.8758C21.0259 20.0482 18.3988 20.0684 15.8175 19.6924C14.4042 19.4869 11.3835 18.5276 10.556 18.1057C10.6878 17.9132 10.7885 17.7059 10.9349 17.561H10.9331ZM31.018 29.2048C29.7457 31.0757 28.4477 32.9191 26.9593 34.5846C25.2384 36.5106 23.2557 37.9156 21.0259 38.8015C19.9586 39.2252 18.8693 39.493 17.7672 39.4178C17.4304 39.394 17.0972 39.339 16.7658 39.2748C16.4674 39.2179 16.1836 39.084 15.8816 39.0638C14.7191 38.9886 13.7506 38.4328 12.87 37.7101C11.0997 36.2574 9.60034 34.5039 8.7106 32.1726C7.83735 29.8834 7.55725 27.4035 7.84101 24.8264C8.04056 23.0234 8.55865 21.2661 9.41543 19.6337C9.47036 19.5291 9.52894 19.4264 9.59851 19.3347C9.64244 19.276 9.71018 19.2375 9.83284 19.1329C10.0068 19.1696 10.2356 19.2026 10.4535 19.2687C11.0668 19.4502 11.6855 19.6208 12.2878 19.8391C13.9428 20.4352 15.6582 20.8039 17.4121 20.9763C19.1988 21.1524 21.0021 21.1873 22.8255 20.9378C23.4681 20.8498 24.118 20.7085 24.7789 20.8498C24.9547 21.7779 24.973 22.684 24.7405 23.6947C24.5263 23.6947 24.334 23.713 24.1473 23.6947C22.5747 23.5388 21.0131 23.713 19.4606 24.3385C18.6569 24.6632 17.9247 25.1346 17.2345 25.7417C16.0134 26.8184 15.2298 29.2983 16.7255 31.1637C17.683 32.3597 18.9114 32.721 20.4126 32.035C21.5641 31.5086 22.4996 30.663 23.3381 29.6303C24.2517 28.5059 24.9272 27.2256 25.4544 25.8444C25.5496 25.595 25.654 25.3492 25.7785 25.0429C26.8312 25.2666 27.6678 25.8573 28.5118 26.4057C29.5022 27.0532 30.4523 27.7759 31.2524 28.7572C31.159 28.9388 31.1041 29.0837 31.0217 29.2048H31.018ZM32.0762 27.6181C31.6478 27.5228 31.4116 27.1981 31.1151 26.9872C30.3956 26.4754 29.6761 25.96 28.9566 25.4464C28.369 25.0263 27.7136 24.7696 27.038 24.5531C26.6261 24.421 26.1941 24.3165 25.9011 23.9368C25.9982 22.8399 26.0934 21.7614 26.1941 20.604C26.7341 20.5141 27.2742 20.4297 27.8161 20.3325C28.1182 20.2793 28.3287 20.4444 28.5484 20.6113C29.4491 21.2863 30.3388 21.9815 31.2633 22.6162C31.9901 23.1169 32.7627 23.5388 33.5096 24.001C33.733 24.1404 33.9454 24.3018 34.22 24.4944C33.4785 25.5748 32.781 26.591 32.0762 27.6181ZM36.0928 36.8224C36.393 38.4273 36.2283 40.069 35.2855 41.5731C34.8333 42.2939 34.2731 42.8314 33.5243 43.0735C32.6602 43.3523 32.0377 43.1303 31.6331 42.2884C31.137 41.2576 30.8496 40.135 30.9192 38.8859C31.0565 36.4078 31.9059 34.2012 33.3467 32.2203C33.4547 32.0717 33.5993 31.9561 33.7934 31.7562C34.9944 33.2676 35.7413 34.9404 36.0928 36.8224ZM46.9106 31.1857C46.2295 32.0827 45.4771 32.8861 44.5819 33.5024C43.8533 34.005 43.0569 34.0563 42.2807 34.2269C42.1525 34.2544 42.0115 34.2067 41.8834 34.1664C41.0211 33.8931 40.3383 33.3025 39.8403 32.5174C39.368 31.7745 39.5767 30.9069 40.0161 30.0944C40.4554 29.2836 41.0907 28.9315 41.8688 28.9553C42.0701 28.9608 42.2678 29.0213 42.4601 29.08C43.8423 29.5037 45.2226 29.9293 46.6012 30.3622C46.7879 30.4209 46.96 30.5217 47.1779 30.6226C47.0735 30.8464 47.0186 31.0427 46.9106 31.1876V31.1857Z" fill="#785990"/>
<path d="M78.2655 44.3539C78.2655 42.7617 79.3969 41.6483 80.9567 41.6483C81.8025 41.6483 82.5366 41.9748 82.9741 42.6278L82.597 42.903C82.2089 42.3619 81.6194 42.1069 80.9567 42.1069C79.7026 42.1069 78.7854 43.0057 78.7854 44.3539C78.7854 45.702 79.7026 46.6008 80.9567 46.6008C81.6194 46.6008 82.2107 46.3458 82.597 45.8047L82.9741 46.0799C82.5366 46.7237 81.8025 47.0594 80.9567 47.0594C79.3969 47.0594 78.2655 45.9368 78.2655 44.3539Z" fill="#444444"/>
<path d="M88.4774 45.8543L88.7721 46.1918C88.3034 46.7641 87.5803 47.0594 86.7638 47.0594C85.1546 47.0594 84.0122 45.9368 84.0122 44.3539C84.0122 42.7709 85.0923 41.6483 86.6009 41.6483C88.0178 41.6483 89.0266 42.7104 89.098 44.1301L84.6035 45.0087C84.858 45.9882 85.6837 46.6008 86.7748 46.6008C87.4576 46.6008 88.0691 46.355 88.4774 45.8561V45.8543ZM84.512 44.3135C84.512 44.4162 84.523 44.5281 84.5321 44.6308L88.5872 43.8348C88.4444 42.8846 87.6901 42.0996 86.6009 42.0996C85.3779 42.0996 84.512 43.0185 84.512 44.3153V44.3135Z" fill="#444444"/>
<path d="M95.619 43.9045V47.019H95.1101V43.9467C95.1101 42.7416 94.4675 42.1087 93.3874 42.1087C92.1333 42.1087 91.3699 42.9158 91.3699 44.1814V47.019H90.861V41.6887H91.3498V42.8424C91.7068 42.0977 92.45 41.6483 93.4588 41.6483C94.7531 41.6483 95.619 42.4132 95.619 43.9045Z" fill="#444444"/>
<path d="M100.379 46.6815C100.113 46.9365 99.685 47.0594 99.2877 47.0594C98.3504 47.0594 97.8414 46.5073 97.8414 45.6103V40.5258H98.3504V41.6905H100.042V42.1289H98.3504V45.559C98.3504 46.2431 98.6872 46.621 99.339 46.621C99.6557 46.621 99.9504 46.5183 100.165 46.3257L100.379 46.6833V46.6815Z" fill="#444444"/>
<path d="M104.494 41.6483V42.1491C104.454 42.1491 104.412 42.1381 104.372 42.1381C103.189 42.1381 102.486 42.925 102.486 44.242V47.019H101.977V41.6887H102.466V42.8534C102.792 42.0776 103.495 41.6483 104.494 41.6483Z" fill="#444444"/>
<path d="M105.454 44.3539C105.454 42.7709 106.585 41.6483 108.114 41.6483C109.642 41.6483 110.774 42.7709 110.774 44.3539C110.774 45.9368 109.642 47.0594 108.114 47.0594C106.585 47.0594 105.454 45.9368 105.454 44.3539ZM110.252 44.3539C110.252 43.0167 109.335 42.1069 108.112 42.1069C106.889 42.1069 105.972 43.0149 105.972 44.3539C105.972 45.6929 106.889 46.6008 108.112 46.6008C109.335 46.6008 110.252 45.6929 110.252 44.3539Z" fill="#444444"/>
<path d="M117.813 46.6815C117.547 46.9365 117.119 47.0594 116.722 47.0594C115.784 47.0594 115.276 46.5073 115.276 45.6103V40.5258H115.784V41.6905H117.476V42.1289H115.784V45.559C115.784 46.2431 116.121 46.621 116.773 46.621C117.09 46.621 117.385 46.5183 117.599 46.3257L117.813 46.6833V46.6815Z" fill="#444444"/>
<path d="M123.102 45.8543L123.397 46.1918C122.928 46.7641 122.205 47.0594 121.388 47.0594C119.779 47.0594 118.637 45.9368 118.637 44.3539C118.637 42.7709 119.717 41.6483 121.225 41.6483C122.642 41.6483 123.651 42.7104 123.722 44.1301L119.228 45.0087C119.483 45.9882 120.308 46.6008 121.399 46.6008C122.082 46.6008 122.694 46.355 123.102 45.8561V45.8543ZM119.138 44.3135C119.138 44.4162 119.149 44.5281 119.158 44.6308L123.214 43.8348C123.071 42.8846 122.316 42.0996 121.227 42.0996C120.004 42.0996 119.138 43.0185 119.138 44.3153V44.3135Z" fill="#444444"/>
<path d="M128.003 41.6483V42.1491C127.962 42.1491 127.92 42.1381 127.88 42.1381C126.697 42.1381 125.994 42.925 125.994 44.242V47.019H125.485V41.6887H125.974V42.8534C126.3 42.0776 127.003 41.6483 128.003 41.6483Z" fill="#444444"/>
<path d="M134.271 41.6887V47.019H133.771V45.7626C133.354 46.5898 132.548 47.0594 131.591 47.0594C130.093 47.0594 128.962 45.946 128.962 44.3539C128.962 42.7617 130.093 41.6483 131.591 41.6483C132.539 41.6483 133.334 42.1179 133.762 42.925V41.6887H134.271ZM133.76 44.3539C133.76 43.0167 132.843 42.1069 131.62 42.1069C130.397 42.1069 129.48 43.0149 129.48 44.3539C129.48 45.6929 130.397 46.6008 131.62 46.6008C132.843 46.6008 133.76 45.6929 133.76 44.3539Z" fill="#444444"/>
<path d="M141.903 44.3539C141.903 45.957 140.772 47.0594 139.275 47.0594C138.337 47.0594 137.543 46.6008 137.114 45.8029V48.9982H136.605V41.6869H137.094V42.9433C137.512 42.1271 138.317 41.6465 139.275 41.6465C140.772 41.6465 141.903 42.7599 141.903 44.352V44.3539ZM141.393 44.3539C141.393 43.0167 140.465 42.1069 139.242 42.1069C138.019 42.1069 137.101 43.0149 137.101 44.3539C137.101 45.6929 138.019 46.6008 139.242 46.6008C140.465 46.6008 141.393 45.6929 141.393 44.3539Z" fill="#444444"/>
<path d="M147.548 45.8543L147.842 46.1918C147.374 46.7641 146.65 47.0594 145.834 47.0594C144.225 47.0594 143.082 45.9368 143.082 44.3539C143.082 42.7709 144.163 41.6483 145.671 41.6483C147.088 41.6483 148.097 42.7104 148.168 44.1301L143.674 45.0087C143.928 45.9882 144.754 46.6008 145.845 46.6008C146.528 46.6008 147.139 46.355 147.548 45.8561V45.8543ZM143.584 44.3135C143.584 44.4162 143.595 44.5281 143.604 44.6308L147.659 43.8348C147.516 42.8846 146.762 42.0996 145.673 42.0996C144.45 42.0996 143.584 43.0185 143.584 44.3153V44.3135ZM145.572 40.8211H145.021L146.438 39.616H147.172L145.572 40.8211Z" fill="#444444"/>
<path d="M154.59 41.6887V47.019H154.102V45.8763C153.756 46.621 153.032 47.0612 152.093 47.0612C150.738 47.0612 149.873 46.2963 149.873 44.8051V41.6905H150.381V44.7629C150.381 45.968 151.024 46.6008 152.134 46.6008C153.336 46.6008 154.08 45.7937 154.08 44.5281V41.6905H154.589L154.59 41.6887Z" fill="#444444"/>
<path d="M159.409 46.6815C159.143 46.9365 158.715 47.0594 158.318 47.0594C157.38 47.0594 156.871 46.5073 156.871 45.6103V40.5258H157.38V41.6905H159.072V42.1289H157.38V45.559C157.38 46.2431 157.717 46.621 158.369 46.621C158.686 46.621 158.98 46.5183 159.195 46.3257L159.409 46.6833V46.6815Z" fill="#444444"/>
<path d="M160.846 39.9847C160.846 39.7609 161.029 39.5665 161.263 39.5665C161.498 39.5665 161.681 39.7499 161.681 39.9755C161.681 40.2011 161.498 40.3937 161.263 40.3937C161.029 40.3937 160.846 40.2103 160.846 39.9847ZM161.009 41.6887H161.518V47.019H161.009V41.6887Z" fill="#444444"/>
<path d="M163.272 44.3539C163.272 42.7617 164.403 41.6483 165.963 41.6483C166.809 41.6483 167.543 41.9748 167.98 42.6278L167.603 42.903C167.215 42.3619 166.626 42.1069 165.963 42.1069C164.709 42.1069 163.792 43.0057 163.792 44.3539C163.792 45.702 164.709 46.6008 165.963 46.6008C166.626 46.6008 167.217 46.3458 167.603 45.8047L167.98 46.0799C167.543 46.7237 166.809 47.0594 165.963 47.0594C164.403 47.0594 163.272 45.9368 163.272 44.3539Z" fill="#444444"/>
<path d="M169.018 44.3539C169.018 42.7709 170.15 41.6483 171.678 41.6483C173.207 41.6483 174.338 42.7709 174.338 44.3539C174.338 45.9368 173.207 47.0594 171.678 47.0594C170.15 47.0594 169.018 45.9368 169.018 44.3539ZM173.818 44.3539C173.818 43.0167 172.901 42.1069 171.678 42.1069C170.455 42.1069 169.538 43.0149 169.538 44.3539C169.538 45.6929 170.455 46.6008 171.678 46.6008C172.901 46.6008 173.818 45.6929 173.818 44.3539Z" fill="#444444"/>
</g>
<defs>
<clipPath id="clip0_10_21">
<rect width="247" height="49" fill="white"/>
</clipPath>
</defs>
</svg>
